<svg width="10" height="13" viewBox="0 0 10 13" fill="none" xmlns="http://www.w3.org/2000/svg">
<path d="M6.66677 2.04356C7.08189 1.52433 7.36359 0.827166 7.2893 0.114746C6.68162 0.144962 5.94007 0.515651 5.51074 1.03528C5.12526 1.48027 4.78407 2.20662 4.87302 2.88918C5.55517 2.94835 6.23668 2.54821 6.66677 2.04356Z" fill="black"/>
<path d="M7.28156 3.02251C6.29092 2.9635 5.44863 3.58474 4.97555 3.58474C4.5022 3.58474 3.77776 3.05224 2.99421 3.0666C1.97438 3.08157 1.02809 3.6582 0.510567 4.5753C-0.553889 6.40995 0.229657 9.13138 1.26478 10.6256C1.76747 11.3648 2.37328 12.1788 3.17154 12.1496C3.92576 12.12 4.22138 11.6612 5.13816 11.6612C6.05427 11.6612 6.32057 12.1496 7.11895 12.1348C7.9469 12.12 8.46451 11.3952 8.96719 10.6552C9.54386 9.8125 9.77992 8.99881 9.79477 8.95414C9.77992 8.93935 8.19826 8.33258 8.18359 6.51318C8.16866 4.98977 9.42537 4.26515 9.48452 4.22021C8.77484 3.17059 7.66599 3.05224 7.28156 3.02251Z" fill="black"/>
</svg>
