<svg width="40" height="15" viewBox="0 0 40 15" fill="none" xmlns="http://www.w3.org/2000/svg">
<path d="M7.3334 1.95017C7.74852 1.43095 8.03022 0.733782 7.95592 0.0213623C7.34825 0.0515786 6.60669 0.422267 6.17737 0.941899C5.79188 1.38688 5.4507 2.11324 5.53964 2.79579C6.22179 2.85497 6.90331 2.45483 7.3334 1.95017Z" fill="black"/>
<path d="M7.94855 2.929C6.95791 2.86999 6.11562 3.49124 5.64254 3.49124C5.1692 3.49124 4.44475 2.95874 3.6612 2.97309C2.64137 2.98807 1.69508 3.56469 1.17756 4.48179C0.113103 6.31644 0.896649 9.03787 1.93178 10.5321C2.43446 11.2713 3.04027 12.0853 3.83853 12.056C4.59275 12.0265 4.88837 11.5677 5.80516 11.5677C6.72127 11.5677 6.98756 12.056 7.78594 12.0413C8.61389 12.0264 9.1315 11.3016 9.63418 10.5617C10.2108 9.71899 10.4469 8.90531 10.4618 8.86064C10.4469 8.84584 8.86525 8.23908 8.85058 6.41967C8.83565 4.89626 10.0924 4.17164 10.1515 4.12671C9.44183 3.07709 8.33298 2.95874 7.94855 2.929Z" fill="black"/>
<path d="M20.5744 0.867434C22.7275 0.867434 24.2269 2.35162 24.2269 4.51248C24.2269 6.68105 22.6967 8.17294 20.5204 8.17294H18.1365V11.9641H16.4141V0.867432H20.5744V0.867434ZM18.1365 6.72718H20.1128C21.6124 6.72718 22.4659 5.91982 22.4659 4.52019C22.4659 3.1207 21.6124 2.32091 20.1205 2.32091H18.1365V6.72718Z" fill="black"/>
<path d="M24.6768 9.66488C24.6768 8.24982 25.761 7.38091 27.6837 7.27322L29.8982 7.14254V6.51971C29.8982 5.61994 29.2907 5.08166 28.2758 5.08166C27.3143 5.08166 26.7145 5.54296 26.5685 6.26592H24.9998C25.0921 4.80472 26.3377 3.72815 28.3372 3.72815C30.2981 3.72815 31.5515 4.76631 31.5515 6.38888V11.9641H29.9597V10.6338H29.9214C29.4524 11.5335 28.4295 12.1025 27.3683 12.1025C25.7842 12.1025 24.6768 11.1182 24.6768 9.66488ZM29.8982 8.93436V8.2961L27.9065 8.41907C26.9145 8.48834 26.3532 8.92665 26.3532 9.61875C26.3532 10.3261 26.9376 10.7876 27.8296 10.7876C28.9908 10.7876 29.8982 9.98779 29.8982 8.93436Z" fill="black"/>
<path d="M33.0547 14.9402V13.5944C33.1775 13.6251 33.4543 13.6251 33.5928 13.6251C34.3618 13.6251 34.7771 13.3022 35.0307 12.4717C35.0307 12.4563 35.177 11.9796 35.177 11.9719L32.2549 3.87427H34.0541L36.0999 10.457H36.1304L38.1762 3.87427H39.9294L36.8994 12.387C36.2076 14.3481 35.4078 14.9786 33.7314 14.9786C33.5928 14.9786 33.1775 14.9632 33.0547 14.9402Z" fill="black"/>
</svg>
