<svg width="20" height="20" viewBox="0 0 24 24" fill="none" xmlns="http://www.w3.org/2000/svg">
<path d="M13.4863 5.75666C13.1934 5.46376 12.7185 5.46376 12.4257 5.75666C12.1328 6.04955 12.1328 6.52442 12.4257 6.81732L13.4863 5.75666ZM18.669 12L19.1993 12.5303C19.34 12.3897 19.419 12.1989 19.419 12C19.419 11.8011 19.34 11.6103 19.1993 11.4697L18.669 12ZM12.4257 17.1827C12.1328 17.4755 12.1328 17.9504 12.4257 18.2433C12.7185 18.5362 13.1934 18.5362 13.4863 18.2433L12.4257 17.1827ZM5.35498 11.25C4.94077 11.25 4.60498 11.5858 4.60498 12C4.60498 12.4142 4.94077 12.75 5.35498 12.75V11.25ZM18.652 12.75C19.0662 12.75 19.402 12.4142 19.402 12C19.402 11.5858 19.0662 11.25 18.652 11.25V12.75ZM12.4257 6.81732L18.1387 12.5303L19.1993 11.4697L13.4863 5.75666L12.4257 6.81732ZM18.1387 11.4697L12.4257 17.1827L13.4863 18.2433L19.1993 12.5303L18.1387 11.4697ZM5.35498 12.75H18.652V11.25H5.35498V12.75Z" fill="#000927"/>
</svg>
