<svg width="10" height="10" viewBox="0 0 8 8" fill="none" xmlns="http://www.w3.org/2000/svg">
<path d="M2.97982 7.02022C3.17508 7.21549 3.49167 7.21549 3.68693 7.02022C3.88219 6.82496 3.88219 6.50838 3.68693 6.31312L2.97982 7.02022ZM0.66671 4L0.313156 3.64645C0.117894 3.84171 0.117894 4.1583 0.313156 4.35356L0.66671 4ZM3.68693 1.68689C3.88219 1.49163 3.88219 1.17505 3.68693 0.979785C3.49167 0.784523 3.17509 0.784523 2.97982 0.979785L3.68693 1.68689ZM7.33337 4.50001C7.60952 4.50001 7.83337 4.27615 7.83337 4.00001C7.83337 3.72386 7.60952 3.50001 7.33337 3.50001L7.33337 4.50001ZM3.68693 6.31312L1.02026 3.64645L0.313156 4.35356L2.97982 7.02022L3.68693 6.31312ZM1.02026 4.35356L3.68693 1.68689L2.97982 0.979785L0.313156 3.64645L1.02026 4.35356ZM7.33337 3.50001L0.66671 3.5L0.66671 4.5L7.33337 4.50001L7.33337 3.50001Z" fill="white"/>
</svg>

