<svg width="18" height="19" viewBox="0 0 18 19" fill="none" xmlns="http://www.w3.org/2000/svg">
<path d="M8.61645 12.0221V10.7101C10.6228 10.7101 11.5875 11.1836 12.4337 12.0699C12.6236 12.2686 12.9611 12.1163 12.9361 11.8439C12.7445 9.68352 11.7359 7.72742 8.61645 7.72742V6.41539C8.61622 6.35828 8.59929 6.30248 8.56772 6.25488C8.53616 6.20728 8.49135 6.16996 8.43882 6.14753C8.3863 6.1251 8.32835 6.11854 8.27214 6.12865C8.21593 6.13877 8.16391 6.16512 8.1225 6.20445L5.1532 9.00781C5.12458 9.03477 5.10177 9.06729 5.08618 9.10338C5.07059 9.13948 5.06255 9.17838 5.06255 9.2177C5.06255 9.25701 5.07059 9.29591 5.08618 9.33201C5.10177 9.3681 5.12458 9.40063 5.1532 9.42758L8.12109 12.232C8.16238 12.2717 8.21443 12.2985 8.27078 12.3089C8.32713 12.3193 8.3853 12.3129 8.43806 12.2906C8.49082 12.2682 8.53586 12.2309 8.56757 12.1831C8.59929 12.1354 8.61628 12.0794 8.61645 12.0221Z" fill="white"/>
<path fill-rule="evenodd" clip-rule="evenodd" d="M1.6875 9.5C1.6875 5.46278 4.96278 2.1875 9 2.1875C13.0372 2.1875 16.3125 5.46278 16.3125 9.5C16.3125 13.5372 13.0372 16.8125 9 16.8125C4.96278 16.8125 1.6875 13.5372 1.6875 9.5ZM9 3.3125C5.5841 3.3125 2.8125 6.0841 2.8125 9.5C2.8125 12.9159 5.5841 15.6875 9 15.6875C12.4159 15.6875 15.1875 12.9159 15.1875 9.5C15.1875 6.0841 12.4159 3.3125 9 3.3125Z" fill="white"/>
</svg>
