<svg width="10" height="10" viewBox="0 0 8 8" fill="none" xmlns="http://www.w3.org/2000/svg">
<path d="M5.0203 0.979776C4.82504 0.784514 4.50846 0.784514 4.31319 0.979776C4.11793 1.17504 4.11793 1.49162 4.31319 1.68688L5.0203 0.979776ZM7.33341 4L7.68697 4.35355C7.88223 4.15829 7.88223 3.84171 7.68697 3.64644L7.33341 4ZM4.31319 6.31311C4.11793 6.50837 4.11793 6.82495 4.31319 7.02021C4.50845 7.21548 4.82504 7.21548 5.0203 7.02022L4.31319 6.31311ZM0.666747 3.49999C0.390605 3.49999 0.166747 3.72385 0.166747 3.99999C0.166747 4.27614 0.390605 4.49999 0.666747 4.49999L0.666747 3.49999ZM4.31319 1.68688L6.97986 4.35355L7.68697 3.64644L5.0203 0.979776L4.31319 1.68688ZM6.97986 3.64644L4.31319 6.31311L5.0203 7.02022L7.68697 4.35355L6.97986 3.64644ZM0.666747 4.49999L7.33341 4.5L7.33341 3.5L0.666747 3.49999L0.666747 4.49999Z" fill="white"/>
</svg>
