 <svg width="10" height="18" viewBox="0 0 10 18" fill="none" xmlns="http://www.w3.org/2000/svg">
<path fill-rule="evenodd" clip-rule="evenodd" d="M4.98459 0.988041C3.31087 1.58258 2.12749 3.12005 1.8973 4.99922C1.84812 5.40072 1.87404 6.31356 1.94566 6.70254C2.11141 7.60259 2.48041 8.51058 3.00415 9.30711C3.25934 9.69526 3.43208 9.91624 4.14015 10.7605C5.14186 11.9549 5.73079 12.8826 5.91588 13.5577C6.12778 14.3305 6.12271 15.2426 5.90021 16.3745C5.80495 16.8591 5.81457 16.9316 5.98868 17.0408C6.12088 17.1238 6.2558 17.1087 6.69408 16.9621C7.85774 16.5727 8.86493 15.6781 9.44038 14.523C10.3271 12.743 10.1513 10.4479 8.97516 8.4495C8.58489 7.78638 8.21057 7.30087 7.48415 6.51564C5.9056 4.80929 5.59483 4.15243 5.58995 2.51197C5.58888 2.15512 5.60591 1.71041 5.62778 1.52374C5.66192 1.23222 5.66098 1.17164 5.62091 1.09419C5.51292 0.885369 5.35011 0.858214 4.98459 0.988041ZM1.1448 9.87661C0.925119 9.98979 0.636727 10.2388 0.4593 10.4684C0.158787 10.8574 0.000380712 11.3474 9.17025e-07 11.8895C-0.000568776 12.6718 0.264243 13.2923 0.949267 14.1136C1.81381 15.1502 1.97199 15.5328 1.89303 16.3966C1.85271 16.8374 1.87505 16.9111 2.07422 16.9943C2.16838 17.0336 2.1999 17.0328 2.33239 16.9879C2.7206 16.8561 3.19123 16.4282 3.40752 16.0105C3.64271 15.5564 3.68731 15.3575 3.68449 14.7762C3.68231 14.3199 3.67354 14.2419 3.59622 13.9881C3.40964 13.3757 3.09552 12.8552 2.56299 12.2759C1.83916 11.4885 1.69765 11.1871 1.70107 10.4402C1.70297 10.0215 1.66493 9.9044 1.50529 9.83771C1.35679 9.77565 1.33641 9.77786 1.1448 9.87661Z" fill="white"/>
</svg>