<svg width="16" height="16" viewBox="0 0 16 16" fill="none" xmlns="http://www.w3.org/2000/svg">
<path d="M14.9673 11.5674C14.8042 11.3937 14.2283 10.8799 13.1695 10.2002C12.103 9.51459 11.3164 9.08709 11.0908 8.98741C11.0709 8.97859 11.049 8.97535 11.0274 8.97805C11.0058 8.98075 10.9854 8.98928 10.9683 9.00272C10.6048 9.28616 9.99296 9.80678 9.96015 9.83491C9.74828 10.0165 9.74828 10.0165 9.57484 9.95991C9.26984 9.85991 8.32234 9.35678 7.49672 8.52928C6.67109 7.70178 6.14203 6.73084 6.04203 6.42616C5.98484 6.25241 5.98484 6.25241 6.16703 6.04053C6.19515 6.00772 6.71609 5.39584 6.99953 5.03272C7.01297 5.01562 7.0215 4.99518 7.0242 4.97359C7.02689 4.95201 7.02366 4.9301 7.01484 4.91022C6.91515 4.68428 6.48765 3.89803 5.80203 2.83147C5.1214 1.77303 4.60828 1.19709 4.43453 1.03397C4.41858 1.01892 4.39888 1.00846 4.37748 1.00367C4.35609 0.998886 4.3338 0.99996 4.31296 1.00678C3.70561 1.21549 3.11961 1.48181 2.56296 1.80209C2.0256 2.11448 1.51685 2.47368 1.04265 2.87553C1.0261 2.8896 1.01369 2.90792 1.00675 2.92851C0.999816 2.9491 0.998614 2.97119 1.00328 2.99241C1.06859 3.29678 1.38078 4.56741 2.34953 6.32741C3.33796 8.12366 4.02296 9.04397 5.47453 10.4905C6.92609 11.9371 7.87546 12.6633 9.67359 13.6518C11.4336 14.6205 12.7048 14.933 13.0086 14.9977C13.0299 15.0023 13.052 15.0011 13.0726 14.9942C13.0932 14.9873 13.1116 14.9749 13.1258 14.9583C13.5276 14.4842 13.8867 13.9754 14.1989 13.438C14.5191 12.8814 14.7854 12.2954 14.9942 11.688C15.0009 11.6674 15.0019 11.6453 14.9972 11.6241C14.9925 11.6028 14.9822 11.5833 14.9673 11.5674Z" fill="#373737"/>
</svg>
