<svg width="30" height="30" viewBox="0 0 31 31" fill="none" xmlns="http://www.w3.org/2000/svg">
<path fill-rule="evenodd" clip-rule="evenodd" d="M13.1559 1.0253C11.2731 1.21223 9.82422 1.61514 8.2825 2.38045C4.85703 4.08087 2.3682 7.15923 1.40312 10.8893C0.92751 12.7275 0.87001 14.8465 1.2452 16.7062C2.05195 20.7048 4.67077 24.113 8.30437 25.8932C9.63996 26.5476 10.7849 26.9111 12.2062 27.1324C13.2363 27.2927 15.0278 27.2926 16.0566 27.1321C17.4762 26.9107 18.6876 26.529 19.9273 25.9125C21.3071 25.2262 22.2833 24.5211 23.401 23.4035C24.5309 22.2735 25.2365 21.2929 25.9151 19.9096C26.5437 18.6281 26.9114 17.4626 27.1299 16.0591C27.29 15.0298 27.29 13.238 27.1299 12.2087C26.9082 10.7843 26.5437 9.63805 25.8893 8.30687C25.2119 6.92892 24.4583 5.88303 23.3656 4.80465C22.3372 3.78967 21.3564 3.07692 20.1266 2.45069C18.6117 1.67936 17.1492 1.24431 15.4733 1.06642C14.845 0.999731 13.6303 0.978169 13.1559 1.0253ZM13.628 3.10044L13.6437 4.18313L13.7877 4.30691C13.9831 4.47485 14.2797 4.47485 14.4751 4.30691L14.6191 4.18313L14.6348 3.09823L14.6506 2.01333L14.9685 2.04423C16.7487 2.21709 18.1363 2.60019 19.5477 3.30841C21.4503 4.26317 23.0253 5.66253 24.2201 7.45977C25.3773 9.20054 25.9995 11.0155 26.2211 13.2968L26.252 13.6147L25.1671 13.6305L24.0822 13.6462L23.9584 13.7902C23.7904 13.9856 23.7904 14.2822 23.9584 14.4776L24.0822 14.6216L25.1649 14.6373L26.2477 14.653L26.2174 15.0224C25.8837 19.0854 23.6409 22.6361 20.1381 24.6465C18.5699 25.5465 16.9961 26.0267 14.9685 26.2236L14.6506 26.2545L14.6348 25.1696L14.6191 24.0847L14.4751 23.9609C14.3763 23.8759 14.2683 23.837 14.1314 23.837C13.9945 23.837 13.8865 23.8759 13.7877 23.9609L13.6437 24.0847L13.628 25.1696L13.6122 26.2545L13.2943 26.2236C10.7544 25.9769 8.74537 25.2241 6.8412 23.8054C6.14524 23.2869 4.969 22.1113 4.45864 21.4241C3.03284 19.5042 2.28908 17.5184 2.04173 14.971L2.01082 14.6531L3.09573 14.6373L4.18063 14.6216L4.30441 14.4776C4.47234 14.2822 4.47234 13.9856 4.30441 13.7902L4.18063 13.6462L3.09573 13.6305L2.01082 13.6147L2.04224 13.2968C2.29622 10.7255 3.03972 8.74074 4.46428 6.83153C4.97198 6.15113 6.15386 4.97263 6.8412 4.46139C8.79641 3.00721 11.0683 2.17581 13.4996 2.02477C13.6117 2.01784 13.6123 2.02246 13.628 3.10044ZM8.85652 8.54888C8.54038 8.63077 8.41921 9.05504 8.6294 9.34418C8.6868 9.42309 9.88465 10.6356 11.2913 12.0387C13.0838 13.8264 13.8935 14.6005 13.9977 14.6259C14.1062 14.6524 14.5768 14.5474 15.7432 14.2363C17.9534 13.647 17.8165 13.6929 17.9327 13.5023C18.0585 13.296 18.0588 13.1754 17.9343 12.9712C17.7364 12.6466 17.6721 12.6516 15.9026 13.1286L14.3111 13.5576L11.7954 11.054C10.1213 9.38792 9.2369 8.54303 9.15147 8.52809C9.08088 8.51577 8.94816 8.52512 8.85652 8.54888Z" fill="#4D2953" stroke="#4D2953" stroke-width="0.6"/>
</svg>
