<svg width="30" height="30" viewBox="0 0 31 31" fill="none" xmlns="http://www.w3.org/2000/svg">
<path d="M5.55101 11.7728C3.86299 11.7728 2.5104 11.2425 1.49325 10.1821C0.497752 9.12169 0 7.68254 0 5.86467C0 4.11171 0.497752 2.70502 1.49325 1.6446C2.5104 0.584169 3.85217 0.0539551 5.51855 0.0539551C7.14166 0.0539551 8.46178 0.59499 9.47892 1.67706C10.5177 2.75913 11.0371 4.18746 11.0371 5.96205C11.0371 7.715 10.5285 9.12169 9.51139 10.1821C8.49424 11.2425 7.17412 11.7728 5.55101 11.7728ZM6.16779 23.9136H3.47344L17.6594 0.378575H20.3537L6.16779 23.9136ZM5.55101 9.69519C6.48159 9.69519 7.22822 9.35975 7.7909 8.68886C8.35357 8.01798 8.63491 7.10904 8.63491 5.96205C8.63491 4.79342 8.35357 3.86284 7.7909 3.17031C7.22822 2.47779 6.47077 2.13153 5.51855 2.13153C4.54469 2.13153 3.7656 2.46697 3.18128 3.13785C2.61861 3.80873 2.33727 4.71767 2.33727 5.86467C2.33727 7.07658 2.61861 8.01798 3.18128 8.68886C3.7656 9.35975 4.55551 9.69519 5.55101 9.69519ZM18.4385 23.946C16.7504 23.946 15.3978 23.4158 14.3807 22.3554C13.3852 21.295 12.8874 19.8558 12.8874 18.0379C12.8874 16.285 13.3852 14.8783 14.3807 13.8179C15.3978 12.7574 16.7396 12.2272 18.406 12.2272C20.0291 12.2272 21.3492 12.7683 22.3664 13.8503C23.4052 14.9324 23.9245 16.3607 23.9245 18.1353C23.9245 19.8883 23.416 21.295 22.3988 22.3554C21.3817 23.4158 20.0616 23.946 18.4385 23.946ZM18.4385 21.8685C19.369 21.8685 20.1157 21.533 20.6783 20.8621C21.241 20.1913 21.5224 19.2823 21.5224 18.1353C21.5224 16.9667 21.241 16.0361 20.6783 15.3436C20.1157 14.6511 19.3582 14.3048 18.406 14.3048C17.4321 14.3048 16.653 14.6402 16.0687 15.3111C15.506 15.982 15.2247 16.8909 15.2247 18.0379C15.2247 19.2499 15.506 20.1913 16.0687 20.8621C16.653 21.533 17.443 21.8685 18.4385 21.8685Z" fill="#4D2953"/>
</svg>
