<svg width="24" height="24" viewBox="0 0 24 24" fill="none" xmlns="http://www.w3.org/2000/svg">
<path d="M19.998 12C19.998 16.4172 16.4171 19.998 12 19.998M19.998 12C19.998 7.58284 16.4171 4.00201 12 4.00201M19.998 12H4.00195M12 19.998C7.58278 19.998 4.00195 16.4172 4.00195 12M12 19.998C13.7943 19.998 15.249 16.4172 15.249 12C15.249 7.58284 13.7943 4.00201 12 4.00201M12 19.998C10.2056 19.998 8.75095 16.4172 8.75095 12C8.75095 7.58284 10.2056 4.00201 12 4.00201M4.00195 12C4.00195 7.58284 7.58278 4.00201 12 4.00201" stroke="#000927" stroke-width="1.5" stroke-miterlimit="10" stroke-linecap="round" stroke-linejoin="round"/>
</svg>
