<svg width="12" height="13" viewBox="0 0 12 13" fill="none" xmlns="http://www.w3.org/2000/svg">
<path d="M11.5704 6.55658C11.5704 6.12399 11.532 5.71005 11.4607 5.31201H5.94226V7.59246L9.12042 7.59315C8.99151 8.35192 8.57667 8.99874 7.94104 9.42995V10.9095H9.83285C10.9375 9.87913 11.5704 8.35607 11.5704 6.55658Z" fill="#4285F4"/>
<path d="M7.94168 9.43014C7.41508 9.7881 6.73693 9.99749 5.94359 9.99749C4.41108 9.99749 3.11102 8.95678 2.64543 7.55396H0.69397V9.07978C1.66079 11.0133 3.64791 12.3401 5.94359 12.3401C7.53027 12.3401 8.86325 11.8143 9.8335 10.909L7.94168 9.43014Z" fill="#34A853"/>
<path d="M2.4617 6.42188C2.4617 6.02798 2.52684 5.64722 2.64546 5.28926V3.76343H0.693996C0.29424 4.56297 0.0693359 5.46547 0.0693359 6.42188C0.0693359 7.37828 0.294926 8.28079 0.693996 9.08033L2.64546 7.5545C2.52684 7.19654 2.4617 6.81577 2.4617 6.42188Z" fill="#FABB05"/>
<path d="M5.94359 2.84582C6.80961 2.84582 7.58513 3.14642 8.19744 3.73381L9.87395 2.04559C8.85571 1.08987 7.52821 0.503174 5.94359 0.503174C3.6486 0.503174 1.66079 1.82998 0.69397 3.76352L2.64543 5.28935C3.11102 3.88653 4.41108 2.84582 5.94359 2.84582Z" fill="#E94235"/>
</svg>
