<svg width="39" height="15" viewBox="0 0 39 15" fill="none" xmlns="http://www.w3.org/2000/svg">
<path d="M19.1066 7.30648V11.4873H17.79V1.16309H21.2802C22.1647 1.16309 22.919 1.46024 23.5361 2.05454C24.1669 2.64883 24.4823 3.37443 24.4823 4.23133C24.4823 5.10895 24.1669 5.83455 23.5361 6.42194C22.9258 7.00933 22.1716 7.29956 21.2802 7.29956H19.1066V7.30648ZM19.1066 2.43461V6.03495H21.3076C21.8287 6.03495 22.2676 5.85528 22.6104 5.50285C22.9601 5.15042 23.1384 4.72197 23.1384 4.23824C23.1384 3.76141 22.9601 3.33988 22.6104 2.98745C22.2676 2.62119 21.8356 2.44152 21.3076 2.44152H19.1066V2.43461Z" fill="#323232"/>
<path d="M27.9244 4.18982C28.8981 4.18982 29.666 4.45242 30.2283 4.97761C30.7906 5.5028 31.0717 6.22149 31.0717 7.13367V11.4873H29.8169V10.506H29.762C29.2203 11.3145 28.4935 11.7153 27.5884 11.7153C26.8136 11.7153 26.169 11.4873 25.6479 11.0243C25.1268 10.5613 24.8662 9.98769 24.8662 9.29664C24.8662 8.56413 25.1405 7.98365 25.689 7.55521C26.2376 7.11985 26.9713 6.90562 27.8832 6.90562C28.6649 6.90562 29.3095 7.05075 29.81 7.34098V7.03692C29.81 6.57392 29.6317 6.18694 29.2683 5.86215C28.9049 5.53736 28.4798 5.37842 27.993 5.37842C27.2593 5.37842 26.6764 5.68939 26.2513 6.31824L25.0925 5.58573C25.7302 4.65282 26.6764 4.18982 27.9244 4.18982ZM26.2239 9.31737C26.2239 9.66289 26.3679 9.95313 26.6627 10.1812C26.9507 10.4092 27.2936 10.5267 27.6844 10.5267C28.2398 10.5267 28.7335 10.3194 29.1655 9.90476C29.5975 9.49013 29.8169 9.0064 29.8169 8.44666C29.4055 8.12187 28.8364 7.95601 28.1027 7.95601C27.5678 7.95601 27.1221 8.08731 26.7656 8.343C26.4022 8.61251 26.2239 8.9373 26.2239 9.31737Z" fill="#323232"/>
<path d="M38.2304 4.41785L33.842 14.59H32.4843L34.1163 11.0311L31.2227 4.41785H32.6557L34.7402 9.49011H34.7677L36.7973 4.41785H38.2304Z" fill="#323232"/>
<path d="M11.8703 6.46344C11.8703 6.03085 11.8319 5.61691 11.7606 5.21887H6.24219V7.49932L9.42035 7.50001C9.29144 8.25878 8.8766 8.9056 8.24097 9.33681V10.8163H10.1328C11.2374 9.78599 11.8703 8.26293 11.8703 6.46344Z" fill="#4285F4"/>
<path d="M8.24186 9.33676C7.71525 9.69472 7.0371 9.90411 6.24376 9.90411C4.71125 9.90411 3.41119 8.86339 2.94561 7.46057H0.994141V8.9864C1.96096 10.9199 3.94808 12.2468 6.24376 12.2468C7.83044 12.2468 9.16342 11.7209 10.1337 10.8156L8.24186 9.33676Z" fill="#34A853"/>
<path d="M2.7615 6.32874C2.7615 5.93484 2.82664 5.55408 2.94527 5.19612V3.67029H0.993801C0.594045 4.46983 0.369141 5.37233 0.369141 6.32874C0.369141 7.28514 0.594731 8.18765 0.993801 8.98719L2.94527 7.46136C2.82664 7.1034 2.7615 6.72263 2.7615 6.32874Z" fill="#FABB05"/>
<path d="M6.24376 2.75255C7.10978 2.75255 7.8853 3.05316 8.49762 3.64055L10.1741 1.95232C9.15588 0.99661 7.82838 0.409912 6.24376 0.409912C3.94877 0.409912 1.96096 1.73672 0.994141 3.67026L2.94561 5.19609C3.41119 3.79327 4.71125 2.75255 6.24376 2.75255Z" fill="#E94235"/>
</svg>
