<svg width="16" height="16" viewBox="0 0 16 16" fill="none" xmlns="http://www.w3.org/2000/svg">
<path d="M8.17352 3.16512C8.12699 3.12062 8.06509 3.09578 8.0007 3.09578C7.93632 3.09578 7.87442 3.12062 7.82789 3.16512L2.07477 8.66106C2.05033 8.68443 2.0309 8.71252 2.01763 8.74362C2.00436 8.77472 1.99754 8.80819 1.99758 8.842L1.99664 14.0001C1.99664 14.2653 2.102 14.5197 2.28954 14.7072C2.47707 14.8948 2.73143 15.0001 2.99664 15.0001H5.99977C6.13238 15.0001 6.25955 14.9474 6.35332 14.8537C6.44709 14.7599 6.49977 14.6327 6.49977 14.5001V10.2501C6.49977 10.1838 6.52611 10.1202 6.57299 10.0733C6.61987 10.0265 6.68346 10.0001 6.74977 10.0001H9.24977C9.31607 10.0001 9.37966 10.0265 9.42654 10.0733C9.47343 10.1202 9.49977 10.1838 9.49977 10.2501V14.5001C9.49977 14.6327 9.55245 14.7599 9.64621 14.8537C9.73998 14.9474 9.86716 15.0001 9.99977 15.0001H13.0016C13.2669 15.0001 13.5212 14.8948 13.7087 14.7072C13.8963 14.5197 14.0016 14.2653 14.0016 14.0001V8.842C14.0017 8.80819 13.9949 8.77472 13.9816 8.74362C13.9683 8.71252 13.9489 8.68443 13.9245 8.66106L8.17352 3.16512Z" fill="#373737"/>
<path d="M15.3407 7.62981L13.0032 5.39356V2.00012C13.0032 1.86751 12.9505 1.74034 12.8568 1.64657C12.763 1.5528 12.6358 1.50012 12.5032 1.50012H11.0032C10.8706 1.50012 10.7434 1.5528 10.6497 1.64657C10.5559 1.74034 10.5032 1.86751 10.5032 2.00012V3.00012L8.6932 1.2695C8.52383 1.09825 8.27196 1.00012 7.99977 1.00012C7.72852 1.00012 7.47727 1.09825 7.30789 1.26981L0.661018 7.62918C0.466643 7.81668 0.442268 8.12512 0.619143 8.32825C0.663559 8.37952 0.717943 8.42122 0.778986 8.4508C0.840029 8.48039 0.906454 8.49724 0.974218 8.50034C1.04198 8.50344 1.10967 8.49272 1.17316 8.46883C1.23664 8.44494 1.29461 8.40838 1.34352 8.36137L7.82789 2.16512C7.87442 2.12062 7.93632 2.09578 8.0007 2.09578C8.06509 2.09578 8.12699 2.12062 8.17352 2.16512L14.6585 8.36137C14.754 8.45298 14.882 8.50298 15.0143 8.5004C15.1467 8.49782 15.2726 8.44288 15.3645 8.34762C15.5563 8.14887 15.5404 7.82075 15.3407 7.62981Z" fill="#373737"/>
</svg>
