<svg width="14" height="13" viewBox="0 0 14 13" fill="none" xmlns="http://www.w3.org/2000/svg">
<path d="M5.79561 12.003C5.99087 12.1982 6.30746 12.1982 6.50272 12.003C6.69798 11.8077 6.69798 11.4911 6.50272 11.2959L5.79561 12.003ZM1 6.50024L0.646447 6.14669C0.552678 6.24045 0.5 6.36763 0.5 6.50024C0.5 6.63285 0.552678 6.76003 0.646447 6.85379L1 6.50024ZM6.50272 1.70463C6.69798 1.50937 6.69798 1.19278 6.50272 0.997521C6.30746 0.802259 5.99087 0.802259 5.79561 0.997521L6.50272 1.70463ZM13 7.00024C13.2761 7.00024 13.5 6.77638 13.5 6.50024C13.5 6.2241 13.2761 6.00024 13 6.00024V7.00024ZM1.01532 6.00024C0.73918 6.00024 0.515322 6.2241 0.515322 6.50024C0.515322 6.77638 0.73918 7.00024 1.01532 7.00024V6.00024ZM6.50272 11.2959L1.35355 6.14669L0.646447 6.85379L5.79561 12.003L6.50272 11.2959ZM1.35355 6.85379L6.50272 1.70463L5.79561 0.997521L0.646447 6.14669L1.35355 6.85379ZM13 6.00024H1.01532V7.00024H13V6.00024Z" fill="#321335"/>
</svg>
