<svg width="16" height="16" viewBox="0 0 16 16" fill="none" xmlns="http://www.w3.org/2000/svg">
<path d="M8 1.00012C5.23969 1.00012 3 3.01606 3 5.50012C3 9.50012 8 15.0001 8 15.0001C8 15.0001 13 9.50012 13 5.50012C13 3.01606 10.7603 1.00012 8 1.00012ZM8 8.00012C7.60444 8.00012 7.21776 7.88282 6.88886 7.66306C6.55996 7.4433 6.30362 7.13094 6.15224 6.76549C6.00087 6.40004 5.96126 5.9979 6.03843 5.60994C6.1156 5.22198 6.30608 4.86561 6.58579 4.58591C6.86549 4.3062 7.22186 4.11572 7.60982 4.03855C7.99778 3.96138 8.39991 4.00099 8.76537 4.15236C9.13082 4.30374 9.44318 4.56008 9.66294 4.88898C9.8827 5.21788 10 5.60456 10 6.00012C9.99942 6.53038 9.78852 7.03875 9.41357 7.4137C9.03863 7.78864 8.53026 7.99954 8 8.00012Z" fill="#321335"/>
</svg>
