<svg width="14" height="14" viewBox="0 0 14 14" fill="none" xmlns="http://www.w3.org/2000/svg">
<path d="M10.4248 3.06261C10.3343 2.80681 10.1667 2.58535 9.94511 2.42872C9.72353 2.27209 9.45885 2.18799 9.1875 2.18799C8.91615 2.18799 8.65147 2.27209 8.42989 2.42872C8.20831 2.58535 8.04072 2.80681 7.9502 3.06261H1.3125V3.93761H7.9502C8.04072 4.19342 8.20831 4.41488 8.42989 4.57151C8.65147 4.72814 8.91615 4.81224 9.1875 4.81224C9.45885 4.81224 9.72353 4.72814 9.94511 4.57151C10.1667 4.41488 10.3343 4.19342 10.4248 3.93761H12.6875V3.06261H10.4248Z" fill="#321335"/>
<path d="M4.8125 5.68761C4.54119 5.688 4.27664 5.7723 4.05512 5.92895C3.83361 6.0856 3.66597 6.30694 3.5752 6.56261H1.3125V7.43761H3.5752C3.66572 7.69342 3.83331 7.91488 4.05489 8.07151C4.27647 8.22814 4.54115 8.31224 4.8125 8.31224C5.08385 8.31224 5.34853 8.22814 5.57011 8.07151C5.79169 7.91488 5.95928 7.69342 6.0498 7.43761H12.6875V6.56261H6.0498C5.95903 6.30694 5.79139 6.0856 5.56988 5.92895C5.34836 5.7723 5.08381 5.688 4.8125 5.68761Z" fill="#321335"/>
<path d="M9.1875 9.18761C8.91619 9.188 8.65164 9.2723 8.43012 9.42895C8.20861 9.5856 8.04097 9.80694 7.9502 10.0626H1.3125V10.9376H7.9502C8.04072 11.1934 8.20831 11.4149 8.42989 11.5715C8.65147 11.7281 8.91615 11.8122 9.1875 11.8122C9.45885 11.8122 9.72353 11.7281 9.94511 11.5715C10.1667 11.4149 10.3343 11.1934 10.4248 10.9376H12.6875V10.0626H10.4248C10.334 9.80694 10.1664 9.5856 9.94488 9.42895C9.72336 9.2723 9.45881 9.188 9.1875 9.18761Z" fill="#321335"/>
</svg>
