<svg width="30" height="30" viewBox="0 0 31 31" fill="none" xmlns="http://www.w3.org/2000/svg">
<path d="M17.1929 3.18781C9.42468 3.08288 3.08288 9.42468 3.18781 17.1929C3.2914 24.643 9.35761 30.7092 16.8077 30.8128C24.5773 30.9191 30.9177 24.5773 30.8115 16.8091C30.7092 9.35761 24.643 3.2914 17.1929 3.18781ZM25.588 24.9193C25.5615 24.9479 25.5291 24.9703 25.493 24.985C25.4569 24.9996 25.418 25.0062 25.3791 25.0042C25.3402 25.0021 25.3022 24.9916 25.2678 24.9732C25.2335 24.9549 25.2036 24.9292 25.1802 24.898C24.5863 24.1209 23.8589 23.4555 23.032 22.933C21.3413 21.848 19.199 21.2503 17.0003 21.2503C14.8016 21.2503 12.6593 21.848 10.9686 22.933C10.1418 23.4553 9.41438 24.1204 8.82039 24.8973C8.79705 24.9285 8.76714 24.9542 8.73276 24.9726C8.69839 24.9909 8.66041 25.0015 8.6215 25.0035C8.58259 25.0055 8.54371 24.999 8.50762 24.9843C8.47152 24.9696 8.4391 24.9472 8.41265 24.9186C6.46408 22.8151 5.36028 20.0665 5.31281 17.1995C5.20456 10.7375 10.5071 5.32874 16.9718 5.31281C23.4364 5.29687 28.6878 10.5463 28.6878 17.0003C28.69 19.9364 27.5828 22.7649 25.588 24.9193Z" fill="#4D2953"/>
<path d="M17.0003 9.56281C15.6908 9.56281 14.5068 10.0536 13.6654 10.9454C12.824 11.8372 12.4037 13.0704 12.4986 14.3939C12.6912 17.0003 14.7106 19.1253 17.0003 19.1253C19.29 19.1253 21.3054 17.0003 21.502 14.3945C21.6003 13.0837 21.1832 11.8618 20.3279 10.9534C19.4832 10.0569 18.3012 9.56281 17.0003 9.56281Z" fill="#4D2953"/>
</svg>
