<svg width="16" height="16" viewBox="0 0 16 16" fill="none" xmlns="http://www.w3.org/2000/svg">
<g opacity="0.5">
<path fill-rule="evenodd" clip-rule="evenodd" d="M9.64645 3.39645C9.84171 3.20118 10.1583 3.20118 10.3536 3.39645L11.8536 4.89645C12.0488 5.09171 12.0488 5.40829 11.8536 5.60355L10.3536 7.10355C10.1583 7.29882 9.84171 7.29882 9.64645 7.10355C9.45118 6.90829 9.45118 6.59171 9.64645 6.39645L10.2929 5.75H4.50078C3.97069 5.75177 3.46281 5.96313 3.08797 6.33797C2.71313 6.71282 2.50177 7.2207 2.5 7.75079V8.25C2.5 8.52614 2.27614 8.75 2 8.75C1.72386 8.75 1.5 8.52614 1.5 8.25V7.75L1.5 7.74851C1.50238 6.95398 1.81905 6.19268 2.38087 5.63087C2.94268 5.06905 3.70398 4.75238 4.49851 4.75L4.5 4.75H10.2929L9.64645 4.10355C9.45118 3.90829 9.45118 3.59171 9.64645 3.39645ZM14 7.25C14.2761 7.25 14.5 7.47386 14.5 7.75V8.25L14.5 8.25149C14.4976 9.04602 14.1809 9.80732 13.6191 10.3691C13.0573 10.9309 12.296 11.2476 11.5015 11.25L11.5 11.25H5.70711L6.35355 11.8964C6.54882 12.0917 6.54882 12.4083 6.35355 12.6036C6.15829 12.7988 5.84171 12.7988 5.64645 12.6036L4.14645 11.1036C3.95118 10.9083 3.95118 10.5917 4.14645 10.3964L5.64645 8.89645C5.84171 8.70118 6.15829 8.70118 6.35355 8.89645C6.54882 9.09171 6.54882 9.40829 6.35355 9.60355L5.70711 10.25H11.4993C12.0293 10.2482 12.5372 10.0369 12.912 9.66203C13.2869 9.28716 13.4983 8.77924 13.5 8.24911V7.75C13.5 7.47386 13.7239 7.25 14 7.25Z" fill="#321335"/>
</g>
</svg>
