<svg width="30" height="30" viewBox="0 0 31 31" fill="none" xmlns="http://www.w3.org/2000/svg">
<path fill-rule="evenodd" clip-rule="evenodd" d="M20.8364 2.88005C21.3925 2.77552 21.9647 2.79427 22.5128 2.93503C23.064 3.07659 23.5772 3.33805 24.0157 3.70078C24.4542 4.0635 24.8073 4.51853 25.0497 5.03341C25.2921 5.54829 25.4179 6.11033 25.4181 6.67942V6.67972V7.55896C27.1716 7.87308 28.5024 9.40615 28.5024 11.2501V22.5001C28.5024 24.5711 26.8235 26.2501 24.7524 26.2501H6.00244C3.93137 26.2501 2.25244 24.5711 2.25244 22.5001V11.2501L2.25244 11.2478V9.31672V9.31644C2.25198 8.41618 2.56562 7.54396 3.1393 6.85015C3.71312 6.15618 4.51113 5.6842 5.39569 5.51563C5.40161 5.5145 5.40753 5.51343 5.41346 5.51242L20.8364 2.88005ZM23.5431 6.68002V7.50006H6.00244C5.68483 7.50006 5.37644 7.53955 5.08192 7.61388C5.28252 7.49147 5.50465 7.40462 5.73869 7.35903L21.1602 4.7269C21.1633 4.72637 21.1664 4.72582 21.1695 4.72526C21.1723 4.72475 21.1751 4.72423 21.1779 4.72369C21.4659 4.66881 21.7625 4.67817 22.0464 4.75109C22.3304 4.82402 22.5947 4.95871 22.8206 5.14557C23.0465 5.33243 23.2284 5.56684 23.3533 5.83208C23.4781 6.09723 23.5429 6.38666 23.5431 6.67972V6.68002ZM4.12744 22.5001L4.12744 12.1875V11.2482C4.12844 10.2135 4.96752 9.37506 6.00244 9.37506H24.7524C25.788 9.37506 26.6274 10.2145 26.6274 11.2501V22.5001C26.6274 23.5356 25.788 24.3751 24.7524 24.3751H6.00244C4.96691 24.3751 4.12744 23.5356 4.12744 22.5001ZM20.8982 18.4341C21.2066 18.6401 21.5691 18.7501 21.9399 18.7501C22.4372 18.7501 22.9141 18.5525 23.2658 18.2009C23.6174 17.8493 23.8149 17.3723 23.8149 16.8751C23.8149 16.5042 23.705 16.1417 23.4989 15.8334C23.2929 15.525 23.0001 15.2847 22.6575 15.1428C22.3149 15.0009 21.9379 14.9637 21.5741 15.0361C21.2104 15.1084 20.8763 15.287 20.6141 15.5492C20.3519 15.8115 20.1733 16.1456 20.101 16.5093C20.0286 16.873 20.0658 17.25 20.2077 17.5926C20.3496 17.9352 20.5899 18.228 20.8982 18.4341Z" fill="#4D2953"/>
</svg>
